<?xml version="1.0" standalone="no"?>
<!DOCTYPE svg PUBLIC "-//W3C//DTD SVG 20010904//EN"
 "http://www.w3.org/TR/2001/REC-SVG-20010904/DTD/svg10.dtd">
<svg version="1.0" xmlns="http://www.w3.org/2000/svg"
 width="225.000000pt" height="225.000000pt" viewBox="0 0 225.000000 225.000000"
 preserveAspectRatio="xMidYMid meet">

<g transform="translate(0.000000,225.000000) scale(0.100000,-0.100000)"
fill="#000000" stroke="none">
<path d="M545 2150 c-99 -8 -176 -27 -224 -58 -97 -62 -161 -140 -199 -244
l-27 -73 0 -645 c0 -598 1 -649 18 -705 27 -85 52 -131 104 -187 52 -54 122
-98 203 -124 50 -17 109 -19 649 -22 360 -2 627 1 677 7 195 24 334 140 391
326 17 56 18 107 18 700 l0 640 -24 74 c-29 88 -95 179 -164 227 -79 55 -148
75 -287 85 -149 10 -992 9 -1135 -1z m870 -526 c19 -21 34 -27 66 -27 31 0 47
6 65 27 27 28 44 32 75 16 42 -23 11 -93 -55 -124 -19 -9 -59 -16 -90 -16
l-56 0 1 -32 c0 -18 8 -55 18 -83 l18 -50 64 -1 c134 -2 263 -89 308 -209 72
-191 -33 -401 -226 -452 -203 -53 -405 90 -421 298 -8 119 51 247 141 301 33
20 37 27 32 52 -3 16 -7 31 -9 33 -2 2 -39 -21 -82 -51 -152 -106 -170 -119
-269 -187 -55 -38 -131 -91 -169 -119 -91 -65 -136 -65 -136 1 0 22 16 37 101
95 68 46 99 73 96 84 -3 8 -21 71 -42 140 -20 69 -43 145 -49 170 -12 43 -14
45 -53 48 -54 4 -80 32 -67 70 l9 27 124 3 c135 3 151 -2 151 -49 0 -30 -9
-39 -50 -48 -24 -5 -26 -9 -19 -28 8 -23 10 -23 219 -23 l210 0 0 62 c0 94 44
127 95 72z m-638 -300 c42 -27 23 -84 -29 -86 -13 0 -49 -7 -81 -16 -104 -27
-171 -116 -170 -227 1 -179 183 -289 344 -208 63 33 115 96 124 151 12 79 52
113 89 77 20 -21 20 -61 0 -122 -51 -149 -192 -243 -347 -231 -123 10 -231 86
-282 199 -24 54 -27 70 -23 147 2 66 9 99 26 135 47 94 143 168 243 185 70 12
83 12 106 -4z"/>
<path d="M933 1373 c13 -46 41 -138 43 -141 1 -2 55 33 120 77 l118 81 -143 0
c-131 0 -142 -1 -138 -17z"/>
<path d="M1497 1234 c-3 -3 12 -58 34 -122 21 -64 36 -124 33 -134 -7 -22 -51
-35 -72 -21 -9 5 -32 60 -53 122 -20 62 -40 115 -43 119 -4 3 -23 -10 -42 -29
-153 -145 -50 -409 159 -409 136 0 239 100 240 235 1 127 -79 215 -219 239
-17 3 -33 3 -37 0z"/>
</g>
</svg>
